<mxfile host="app.diagrams.net" modified="2021-07-20T05:02:21.355Z" agent="5.0 (Windows NT 10.0; Win64; x64) AppleWebKit/537.36 (KHTML, like Gecko) Chrome/89.0.4389.128 Safari/537.36" etag="CIOUgfxQutvLLRHIO9-l" version="14.7.6" type="github">
  <diagram id="mZoeGFBJd2qPmY7S9i2l" name="第 1 页">
    <mxGraphModel dx="2831" dy="1007" grid="1" gridSize="10" guides="1" tooltips="1" connect="1" arrows="1" fold="1" page="0" pageScale="1" pageWidth="827" pageHeight="1169" math="0" shadow="0">
      <root>
        <mxCell id="0" />
        <mxCell id="1" parent="0" />
        <mxCell id="cnSfAzxbxcXebwONDiKh-8" value="" style="rounded=1;whiteSpace=wrap;html=1;fillColor=none;dashed=1;strokeColor=#0000FF;" vertex="1" parent="1">
          <mxGeometry x="-190" y="70" width="980" height="680" as="geometry" />
        </mxCell>
        <mxCell id="cnSfAzxbxcXebwONDiKh-3" value="" style="rounded=1;whiteSpace=wrap;html=1;fillColor=none;dashed=1;strokeColor=#FF0000;" vertex="1" parent="1">
          <mxGeometry x="140" y="101" width="620" height="480" as="geometry" />
        </mxCell>
        <mxCell id="Q5Fud4AHKC7Yzbmz-aem-5" value="" style="group" parent="1" vertex="1" connectable="0">
          <mxGeometry x="-178" y="360" width="240" height="80" as="geometry" />
        </mxCell>
        <mxCell id="Q5Fud4AHKC7Yzbmz-aem-1" value="" style="verticalLabelPosition=bottom;verticalAlign=top;html=1;shadow=0;dashed=0;strokeWidth=1;shape=mxgraph.android.contact_badge_normal;" parent="Q5Fud4AHKC7Yzbmz-aem-5" vertex="1">
          <mxGeometry width="80" height="80" as="geometry" />
        </mxCell>
        <mxCell id="Q5Fud4AHKC7Yzbmz-aem-2" value="" style="verticalLabelPosition=bottom;verticalAlign=top;html=1;shadow=0;dashed=0;strokeWidth=1;strokeColor=none;shape=rect;fillColor=#0066CC;" parent="Q5Fud4AHKC7Yzbmz-aem-5" vertex="1">
          <mxGeometry x="80" width="160" height="80" as="geometry" />
        </mxCell>
        <mxCell id="Q5Fud4AHKC7Yzbmz-aem-4" value="&lt;font color=&quot;#ffffff&quot; style=&quot;font-size: 19px&quot;&gt;云网安中心&lt;/font&gt;" style="text;html=1;strokeColor=none;fillColor=none;align=center;verticalAlign=middle;whiteSpace=wrap;rounded=0;" parent="Q5Fud4AHKC7Yzbmz-aem-5" vertex="1">
          <mxGeometry x="100" y="20" width="120" height="40" as="geometry" />
        </mxCell>
        <mxCell id="Q5Fud4AHKC7Yzbmz-aem-10" value="" style="group" parent="1" vertex="1" connectable="0">
          <mxGeometry x="-480" y="81" width="240" height="80" as="geometry" />
        </mxCell>
        <mxCell id="Q5Fud4AHKC7Yzbmz-aem-8" value="" style="verticalLabelPosition=bottom;verticalAlign=top;html=1;shadow=0;dashed=0;strokeWidth=1;strokeColor=none;shape=rect;fillColor=#0066CC;" parent="Q5Fud4AHKC7Yzbmz-aem-10" vertex="1">
          <mxGeometry width="240" height="80" as="geometry" />
        </mxCell>
        <mxCell id="Q5Fud4AHKC7Yzbmz-aem-9" value="&lt;font color=&quot;#ffffff&quot; style=&quot;font-size: 21px&quot;&gt;市政支&lt;/font&gt;" style="text;html=1;strokeColor=none;fillColor=none;align=center;verticalAlign=middle;whiteSpace=wrap;rounded=0;" parent="Q5Fud4AHKC7Yzbmz-aem-10" vertex="1">
          <mxGeometry x="74" y="20" width="120" height="40" as="geometry" />
        </mxCell>
        <mxCell id="Q5Fud4AHKC7Yzbmz-aem-38" value="" style="group" parent="Q5Fud4AHKC7Yzbmz-aem-10" vertex="1" connectable="0">
          <mxGeometry width="240" height="80" as="geometry" />
        </mxCell>
        <mxCell id="Q5Fud4AHKC7Yzbmz-aem-39" value="" style="verticalLabelPosition=bottom;verticalAlign=top;html=1;shadow=0;dashed=0;strokeWidth=1;strokeColor=none;shape=rect;fillColor=#0066CC;" parent="Q5Fud4AHKC7Yzbmz-aem-38" vertex="1">
          <mxGeometry width="240" height="80" as="geometry" />
        </mxCell>
        <mxCell id="Q5Fud4AHKC7Yzbmz-aem-40" value="&lt;font color=&quot;#ffffff&quot; style=&quot;font-size: 21px&quot;&gt;市网运部各专业中心&lt;/font&gt;" style="text;html=1;strokeColor=none;fillColor=none;align=center;verticalAlign=middle;whiteSpace=wrap;rounded=0;" parent="Q5Fud4AHKC7Yzbmz-aem-38" vertex="1">
          <mxGeometry x="20" y="20" width="210" height="40" as="geometry" />
        </mxCell>
        <mxCell id="Q5Fud4AHKC7Yzbmz-aem-31" value="" style="group" parent="1" vertex="1" connectable="0">
          <mxGeometry x="160" y="200" width="240" height="80" as="geometry" />
        </mxCell>
        <mxCell id="Q5Fud4AHKC7Yzbmz-aem-24" value="" style="verticalLabelPosition=bottom;verticalAlign=top;html=1;shadow=0;dashed=0;strokeWidth=1;strokeColor=none;shape=rect;fillColor=#0066CC;" parent="Q5Fud4AHKC7Yzbmz-aem-31" vertex="1">
          <mxGeometry width="240" height="80" as="geometry" />
        </mxCell>
        <mxCell id="Q5Fud4AHKC7Yzbmz-aem-25" value="&lt;font color=&quot;#ffffff&quot; style=&quot;font-size: 21px&quot;&gt;CTO团队&lt;/font&gt;" style="text;html=1;strokeColor=none;fillColor=none;align=center;verticalAlign=middle;whiteSpace=wrap;rounded=0;" parent="Q5Fud4AHKC7Yzbmz-aem-31" vertex="1">
          <mxGeometry x="74" y="20" width="120" height="40" as="geometry" />
        </mxCell>
        <mxCell id="Q5Fud4AHKC7Yzbmz-aem-33" value="" style="group" parent="1" vertex="1" connectable="0">
          <mxGeometry x="160" y="620" width="240" height="80" as="geometry" />
        </mxCell>
        <mxCell id="Q5Fud4AHKC7Yzbmz-aem-20" value="" style="verticalLabelPosition=bottom;verticalAlign=top;html=1;shadow=0;dashed=0;strokeWidth=1;strokeColor=none;shape=rect;fillColor=#0066CC;" parent="Q5Fud4AHKC7Yzbmz-aem-33" vertex="1">
          <mxGeometry width="240" height="80" as="geometry" />
        </mxCell>
        <mxCell id="Q5Fud4AHKC7Yzbmz-aem-21" value="&lt;font color=&quot;#ffffff&quot; style=&quot;font-size: 21px&quot;&gt;政企部&lt;/font&gt;" style="text;html=1;strokeColor=none;fillColor=none;align=center;verticalAlign=middle;whiteSpace=wrap;rounded=0;" parent="Q5Fud4AHKC7Yzbmz-aem-33" vertex="1">
          <mxGeometry x="74" y="20" width="120" height="40" as="geometry" />
        </mxCell>
        <mxCell id="Q5Fud4AHKC7Yzbmz-aem-34" value="" style="group" parent="1" vertex="1" connectable="0">
          <mxGeometry x="-480" y="600" width="240" height="80" as="geometry" />
        </mxCell>
        <mxCell id="Q5Fud4AHKC7Yzbmz-aem-18" value="" style="verticalLabelPosition=bottom;verticalAlign=top;html=1;shadow=0;dashed=0;strokeWidth=1;strokeColor=none;shape=rect;fillColor=#0066CC;" parent="Q5Fud4AHKC7Yzbmz-aem-34" vertex="1">
          <mxGeometry width="240" height="80" as="geometry" />
        </mxCell>
        <mxCell id="Q5Fud4AHKC7Yzbmz-aem-19" value="&lt;font color=&quot;#ffffff&quot; style=&quot;font-size: 21px&quot;&gt;专业施工单位&lt;/font&gt;" style="text;html=1;strokeColor=none;fillColor=none;align=center;verticalAlign=middle;whiteSpace=wrap;rounded=0;" parent="Q5Fud4AHKC7Yzbmz-aem-34" vertex="1">
          <mxGeometry x="50" y="20" width="160" height="40" as="geometry" />
        </mxCell>
        <mxCell id="Q5Fud4AHKC7Yzbmz-aem-41" value="" style="group" parent="1" vertex="1" connectable="0">
          <mxGeometry x="-480" y="360" width="240" height="80" as="geometry" />
        </mxCell>
        <mxCell id="Q5Fud4AHKC7Yzbmz-aem-28" value="" style="verticalLabelPosition=bottom;verticalAlign=top;html=1;shadow=0;dashed=0;strokeWidth=1;strokeColor=none;shape=rect;fillColor=#0066CC;" parent="Q5Fud4AHKC7Yzbmz-aem-41" vertex="1">
          <mxGeometry width="240" height="80" as="geometry" />
        </mxCell>
        <mxCell id="Q5Fud4AHKC7Yzbmz-aem-29" value="&lt;font color=&quot;#ffffff&quot; style=&quot;font-size: 21px&quot;&gt;区客响维护部&lt;/font&gt;" style="text;html=1;strokeColor=none;fillColor=none;align=center;verticalAlign=middle;whiteSpace=wrap;rounded=0;" parent="Q5Fud4AHKC7Yzbmz-aem-41" vertex="1">
          <mxGeometry x="40" y="20" width="163" height="40" as="geometry" />
        </mxCell>
        <mxCell id="Q5Fud4AHKC7Yzbmz-aem-42" value="" style="group" parent="1" vertex="1" connectable="0">
          <mxGeometry x="160" y="360" width="240" height="80" as="geometry" />
        </mxCell>
        <mxCell id="Q5Fud4AHKC7Yzbmz-aem-12" value="" style="verticalLabelPosition=bottom;verticalAlign=top;html=1;shadow=0;dashed=0;strokeWidth=1;strokeColor=none;shape=rect;fillColor=#0066CC;" parent="Q5Fud4AHKC7Yzbmz-aem-42" vertex="1">
          <mxGeometry width="240" height="80" as="geometry" />
        </mxCell>
        <mxCell id="Q5Fud4AHKC7Yzbmz-aem-13" value="&lt;font color=&quot;#ffffff&quot; style=&quot;font-size: 21px&quot;&gt;营服中心&lt;/font&gt;" style="text;html=1;strokeColor=none;fillColor=none;align=center;verticalAlign=middle;whiteSpace=wrap;rounded=0;" parent="Q5Fud4AHKC7Yzbmz-aem-42" vertex="1">
          <mxGeometry x="60" y="20" width="120" height="40" as="geometry" />
        </mxCell>
        <mxCell id="Q5Fud4AHKC7Yzbmz-aem-49" value="" style="group" parent="1" vertex="1" connectable="0">
          <mxGeometry x="-780" y="240" width="240" height="80" as="geometry" />
        </mxCell>
        <mxCell id="Q5Fud4AHKC7Yzbmz-aem-50" value="" style="verticalLabelPosition=bottom;verticalAlign=top;html=1;shadow=0;dashed=0;strokeWidth=1;shape=mxgraph.android.contact_badge_normal;" parent="Q5Fud4AHKC7Yzbmz-aem-49" vertex="1">
          <mxGeometry width="80" height="80" as="geometry" />
        </mxCell>
        <mxCell id="Q5Fud4AHKC7Yzbmz-aem-51" value="" style="verticalLabelPosition=bottom;verticalAlign=top;html=1;shadow=0;dashed=0;strokeWidth=1;strokeColor=none;shape=rect;fillColor=#0066CC;" parent="Q5Fud4AHKC7Yzbmz-aem-49" vertex="1">
          <mxGeometry x="80" width="160" height="80" as="geometry" />
        </mxCell>
        <mxCell id="Q5Fud4AHKC7Yzbmz-aem-52" value="&lt;font color=&quot;#ffffff&quot; style=&quot;font-size: 19px&quot;&gt;网络优化中心&lt;/font&gt;" style="text;html=1;strokeColor=none;fillColor=none;align=center;verticalAlign=middle;whiteSpace=wrap;rounded=0;" parent="Q5Fud4AHKC7Yzbmz-aem-49" vertex="1">
          <mxGeometry x="100" y="20" width="120" height="40" as="geometry" />
        </mxCell>
        <mxCell id="Q5Fud4AHKC7Yzbmz-aem-53" value="" style="group" parent="1" vertex="1" connectable="0">
          <mxGeometry x="-780" y="360" width="240" height="80" as="geometry" />
        </mxCell>
        <mxCell id="Q5Fud4AHKC7Yzbmz-aem-54" value="" style="verticalLabelPosition=bottom;verticalAlign=top;html=1;shadow=0;dashed=0;strokeWidth=1;shape=mxgraph.android.contact_badge_normal;" parent="Q5Fud4AHKC7Yzbmz-aem-53" vertex="1">
          <mxGeometry width="80" height="80" as="geometry" />
        </mxCell>
        <mxCell id="Q5Fud4AHKC7Yzbmz-aem-55" value="" style="verticalLabelPosition=bottom;verticalAlign=top;html=1;shadow=0;dashed=0;strokeWidth=1;strokeColor=none;shape=rect;fillColor=#0066CC;" parent="Q5Fud4AHKC7Yzbmz-aem-53" vertex="1">
          <mxGeometry x="80" width="160" height="80" as="geometry" />
        </mxCell>
        <mxCell id="Q5Fud4AHKC7Yzbmz-aem-56" value="&lt;font color=&quot;#ffffff&quot; style=&quot;font-size: 19px&quot;&gt;装维服务中心&lt;/font&gt;" style="text;html=1;strokeColor=none;fillColor=none;align=center;verticalAlign=middle;whiteSpace=wrap;rounded=0;" parent="Q5Fud4AHKC7Yzbmz-aem-53" vertex="1">
          <mxGeometry x="100" y="20" width="120" height="40" as="geometry" />
        </mxCell>
        <mxCell id="Q5Fud4AHKC7Yzbmz-aem-57" value="" style="group" parent="1" vertex="1" connectable="0">
          <mxGeometry x="-780" y="480" width="240" height="80" as="geometry" />
        </mxCell>
        <mxCell id="Q5Fud4AHKC7Yzbmz-aem-58" value="" style="verticalLabelPosition=bottom;verticalAlign=top;html=1;shadow=0;dashed=0;strokeWidth=1;shape=mxgraph.android.contact_badge_normal;" parent="Q5Fud4AHKC7Yzbmz-aem-57" vertex="1">
          <mxGeometry width="80" height="80" as="geometry" />
        </mxCell>
        <mxCell id="Q5Fud4AHKC7Yzbmz-aem-59" value="" style="verticalLabelPosition=bottom;verticalAlign=top;html=1;shadow=0;dashed=0;strokeWidth=1;strokeColor=none;shape=rect;fillColor=#0066CC;" parent="Q5Fud4AHKC7Yzbmz-aem-57" vertex="1">
          <mxGeometry x="80" width="160" height="80" as="geometry" />
        </mxCell>
        <mxCell id="Q5Fud4AHKC7Yzbmz-aem-60" value="&lt;font color=&quot;#ffffff&quot; style=&quot;font-size: 19px&quot;&gt;综合维护中心&lt;/font&gt;" style="text;html=1;strokeColor=none;fillColor=none;align=center;verticalAlign=middle;whiteSpace=wrap;rounded=0;" parent="Q5Fud4AHKC7Yzbmz-aem-57" vertex="1">
          <mxGeometry x="100" y="20" width="120" height="40" as="geometry" />
        </mxCell>
        <mxCell id="Q5Fud4AHKC7Yzbmz-aem-61" value="" style="group" parent="1" vertex="1" connectable="0">
          <mxGeometry x="480" y="620" width="240" height="80" as="geometry" />
        </mxCell>
        <mxCell id="Q5Fud4AHKC7Yzbmz-aem-62" value="" style="verticalLabelPosition=bottom;verticalAlign=top;html=1;shadow=0;dashed=0;strokeWidth=1;shape=mxgraph.android.contact_badge_normal;" parent="Q5Fud4AHKC7Yzbmz-aem-61" vertex="1">
          <mxGeometry width="80" height="80" as="geometry" />
        </mxCell>
        <mxCell id="Q5Fud4AHKC7Yzbmz-aem-63" value="" style="verticalLabelPosition=bottom;verticalAlign=top;html=1;shadow=0;dashed=0;strokeWidth=1;strokeColor=none;shape=rect;fillColor=#0066CC;" parent="Q5Fud4AHKC7Yzbmz-aem-61" vertex="1">
          <mxGeometry x="80" width="160" height="80" as="geometry" />
        </mxCell>
        <mxCell id="Q5Fud4AHKC7Yzbmz-aem-64" value="&lt;font color=&quot;#ffffff&quot; style=&quot;font-size: 21px&quot;&gt;信息化团队&lt;/font&gt;" style="text;html=1;strokeColor=none;fillColor=none;align=center;verticalAlign=middle;whiteSpace=wrap;rounded=0;" parent="Q5Fud4AHKC7Yzbmz-aem-61" vertex="1">
          <mxGeometry x="100" y="20" width="120" height="40" as="geometry" />
        </mxCell>
        <mxCell id="Q5Fud4AHKC7Yzbmz-aem-71" value="" style="endArrow=none;html=1;exitX=1;exitY=0.5;exitDx=0;exitDy=0;entryX=0;entryY=0.517;entryDx=0;entryDy=0;entryPerimeter=0;" parent="1" source="Q5Fud4AHKC7Yzbmz-aem-12" target="Q5Fud4AHKC7Yzbmz-aem-98" edge="1">
          <mxGeometry width="50" height="50" relative="1" as="geometry">
            <mxPoint x="-150" y="270" as="sourcePoint" />
            <mxPoint x="490" y="530" as="targetPoint" />
          </mxGeometry>
        </mxCell>
        <mxCell id="Q5Fud4AHKC7Yzbmz-aem-72" value="" style="endArrow=none;html=1;exitX=1;exitY=0.5;exitDx=0;exitDy=0;" parent="1" source="Q5Fud4AHKC7Yzbmz-aem-24" edge="1">
          <mxGeometry width="50" height="50" relative="1" as="geometry">
            <mxPoint x="-140" y="280" as="sourcePoint" />
            <mxPoint x="480" y="280" as="targetPoint" />
          </mxGeometry>
        </mxCell>
        <mxCell id="Q5Fud4AHKC7Yzbmz-aem-73" value="" style="endArrow=none;html=1;exitX=1;exitY=0.5;exitDx=0;exitDy=0;" parent="1" source="Q5Fud4AHKC7Yzbmz-aem-24" edge="1">
          <mxGeometry width="50" height="50" relative="1" as="geometry">
            <mxPoint x="320" y="170" as="sourcePoint" />
            <mxPoint x="478" y="160" as="targetPoint" />
          </mxGeometry>
        </mxCell>
        <mxCell id="Q5Fud4AHKC7Yzbmz-aem-74" value="" style="endArrow=none;html=1;entryX=0;entryY=0.517;entryDx=0;entryDy=0;entryPerimeter=0;exitX=1;exitY=0.5;exitDx=0;exitDy=0;" parent="1" source="Q5Fud4AHKC7Yzbmz-aem-20" target="Q5Fud4AHKC7Yzbmz-aem-62" edge="1">
          <mxGeometry width="50" height="50" relative="1" as="geometry">
            <mxPoint x="-120" y="320" as="sourcePoint" />
            <mxPoint x="-70" y="270" as="targetPoint" />
          </mxGeometry>
        </mxCell>
        <mxCell id="Q5Fud4AHKC7Yzbmz-aem-76" value="" style="endArrow=none;html=1;entryX=1;entryY=0.5;entryDx=0;entryDy=0;exitX=0;exitY=0.5;exitDx=0;exitDy=0;" parent="1" source="Q5Fud4AHKC7Yzbmz-aem-28" target="Q5Fud4AHKC7Yzbmz-aem-59" edge="1">
          <mxGeometry width="50" height="50" relative="1" as="geometry">
            <mxPoint x="-324" y="313" as="sourcePoint" />
            <mxPoint x="-274" y="263" as="targetPoint" />
          </mxGeometry>
        </mxCell>
        <mxCell id="Q5Fud4AHKC7Yzbmz-aem-77" value="" style="endArrow=none;html=1;entryX=1;entryY=0.5;entryDx=0;entryDy=0;exitX=0;exitY=0.5;exitDx=0;exitDy=0;" parent="1" source="Q5Fud4AHKC7Yzbmz-aem-28" target="Q5Fud4AHKC7Yzbmz-aem-55" edge="1">
          <mxGeometry width="50" height="50" relative="1" as="geometry">
            <mxPoint x="-314" y="323" as="sourcePoint" />
            <mxPoint x="-264" y="273" as="targetPoint" />
          </mxGeometry>
        </mxCell>
        <mxCell id="Q5Fud4AHKC7Yzbmz-aem-78" value="" style="endArrow=none;html=1;entryX=1;entryY=0.5;entryDx=0;entryDy=0;exitX=0;exitY=0.5;exitDx=0;exitDy=0;" parent="1" source="Q5Fud4AHKC7Yzbmz-aem-28" target="Q5Fud4AHKC7Yzbmz-aem-51" edge="1">
          <mxGeometry width="50" height="50" relative="1" as="geometry">
            <mxPoint x="-304" y="333" as="sourcePoint" />
            <mxPoint x="-254" y="283" as="targetPoint" />
          </mxGeometry>
        </mxCell>
        <mxCell id="Q5Fud4AHKC7Yzbmz-aem-81" value="" style="endArrow=classic;html=1;exitX=0.5;exitY=1;exitDx=0;exitDy=0;entryX=0.5;entryY=0;entryDx=0;entryDy=0;" parent="1" source="Q5Fud4AHKC7Yzbmz-aem-39" target="Q5Fud4AHKC7Yzbmz-aem-28" edge="1">
          <mxGeometry width="50" height="50" relative="1" as="geometry">
            <mxPoint x="-260" y="80" as="sourcePoint" />
            <mxPoint x="-360" y="350" as="targetPoint" />
          </mxGeometry>
        </mxCell>
        <mxCell id="Q5Fud4AHKC7Yzbmz-aem-82" value="" style="endArrow=classic;html=1;entryX=0;entryY=0.5;entryDx=0;entryDy=0;exitX=1;exitY=0.5;exitDx=0;exitDy=0;" parent="1" target="Q5Fud4AHKC7Yzbmz-aem-24" edge="1" source="Q5Fud4AHKC7Yzbmz-aem-2">
          <mxGeometry width="50" height="50" relative="1" as="geometry">
            <mxPoint x="-120" y="360" as="sourcePoint" />
            <mxPoint x="-200" y="40" as="targetPoint" />
          </mxGeometry>
        </mxCell>
        <mxCell id="Q5Fud4AHKC7Yzbmz-aem-83" value="" style="endArrow=classic;html=1;entryX=0.5;entryY=1;entryDx=0;entryDy=0;exitX=0.5;exitY=0;exitDx=0;exitDy=0;" parent="1" source="Q5Fud4AHKC7Yzbmz-aem-20" target="Q5Fud4AHKC7Yzbmz-aem-12" edge="1">
          <mxGeometry width="50" height="50" relative="1" as="geometry">
            <mxPoint x="-240" y="100" as="sourcePoint" />
            <mxPoint x="-190" y="50" as="targetPoint" />
          </mxGeometry>
        </mxCell>
        <mxCell id="Q5Fud4AHKC7Yzbmz-aem-84" value="" style="endArrow=classic;html=1;entryX=0.5;entryY=1;entryDx=0;entryDy=0;exitX=0.5;exitY=0;exitDx=0;exitDy=0;" parent="1" source="Q5Fud4AHKC7Yzbmz-aem-18" target="Q5Fud4AHKC7Yzbmz-aem-28" edge="1">
          <mxGeometry width="50" height="50" relative="1" as="geometry">
            <mxPoint x="-454" y="103" as="sourcePoint" />
            <mxPoint x="-404" y="53" as="targetPoint" />
          </mxGeometry>
        </mxCell>
        <mxCell id="Q5Fud4AHKC7Yzbmz-aem-85" value="" style="group" parent="1" vertex="1" connectable="0">
          <mxGeometry x="480" y="120" width="240" height="80" as="geometry" />
        </mxCell>
        <mxCell id="Q5Fud4AHKC7Yzbmz-aem-86" value="" style="verticalLabelPosition=bottom;verticalAlign=top;html=1;shadow=0;dashed=0;strokeWidth=1;shape=mxgraph.android.contact_badge_normal;" parent="Q5Fud4AHKC7Yzbmz-aem-85" vertex="1">
          <mxGeometry width="80" height="80" as="geometry" />
        </mxCell>
        <mxCell id="Q5Fud4AHKC7Yzbmz-aem-87" value="" style="verticalLabelPosition=bottom;verticalAlign=top;html=1;shadow=0;dashed=0;strokeWidth=1;strokeColor=none;shape=rect;fillColor=#0066CC;" parent="Q5Fud4AHKC7Yzbmz-aem-85" vertex="1">
          <mxGeometry x="80" width="160" height="80" as="geometry" />
        </mxCell>
        <mxCell id="Q5Fud4AHKC7Yzbmz-aem-88" value="&lt;font color=&quot;#ffffff&quot; style=&quot;font-size: 21px&quot;&gt;CTO&lt;/font&gt;" style="text;html=1;strokeColor=none;fillColor=none;align=center;verticalAlign=middle;whiteSpace=wrap;rounded=0;" parent="Q5Fud4AHKC7Yzbmz-aem-85" vertex="1">
          <mxGeometry x="100" y="20" width="120" height="40" as="geometry" />
        </mxCell>
        <mxCell id="Q5Fud4AHKC7Yzbmz-aem-89" value="" style="group" parent="1" vertex="1" connectable="0">
          <mxGeometry x="480" y="240" width="240" height="80" as="geometry" />
        </mxCell>
        <mxCell id="Q5Fud4AHKC7Yzbmz-aem-90" value="" style="verticalLabelPosition=bottom;verticalAlign=top;html=1;shadow=0;dashed=0;strokeWidth=1;shape=mxgraph.android.contact_badge_normal;" parent="Q5Fud4AHKC7Yzbmz-aem-89" vertex="1">
          <mxGeometry width="80" height="80" as="geometry" />
        </mxCell>
        <mxCell id="Q5Fud4AHKC7Yzbmz-aem-91" value="" style="verticalLabelPosition=bottom;verticalAlign=top;html=1;shadow=0;dashed=0;strokeWidth=1;strokeColor=none;shape=rect;fillColor=#0066CC;" parent="Q5Fud4AHKC7Yzbmz-aem-89" vertex="1">
          <mxGeometry x="80" width="160" height="80" as="geometry" />
        </mxCell>
        <mxCell id="Q5Fud4AHKC7Yzbmz-aem-92" value="&lt;font color=&quot;#ffffff&quot; style=&quot;font-size: 21px&quot;&gt;客户工程师&lt;/font&gt;" style="text;html=1;strokeColor=none;fillColor=none;align=center;verticalAlign=middle;whiteSpace=wrap;rounded=0;" parent="Q5Fud4AHKC7Yzbmz-aem-89" vertex="1">
          <mxGeometry x="100" y="20" width="120" height="40" as="geometry" />
        </mxCell>
        <mxCell id="Q5Fud4AHKC7Yzbmz-aem-93" value="" style="group" parent="1" vertex="1" connectable="0">
          <mxGeometry x="480" y="360" width="240" height="80" as="geometry" />
        </mxCell>
        <mxCell id="Q5Fud4AHKC7Yzbmz-aem-94" value="" style="verticalLabelPosition=bottom;verticalAlign=top;html=1;shadow=0;dashed=0;strokeWidth=1;shape=mxgraph.android.contact_badge_normal;" parent="Q5Fud4AHKC7Yzbmz-aem-93" vertex="1">
          <mxGeometry width="80" height="80" as="geometry" />
        </mxCell>
        <mxCell id="Q5Fud4AHKC7Yzbmz-aem-95" value="" style="verticalLabelPosition=bottom;verticalAlign=top;html=1;shadow=0;dashed=0;strokeWidth=1;strokeColor=none;shape=rect;fillColor=#0066CC;" parent="Q5Fud4AHKC7Yzbmz-aem-93" vertex="1">
          <mxGeometry x="80" width="160" height="80" as="geometry" />
        </mxCell>
        <mxCell id="Q5Fud4AHKC7Yzbmz-aem-96" value="&lt;font color=&quot;#ffffff&quot; style=&quot;font-size: 21px&quot;&gt;交付工程师&lt;/font&gt;" style="text;html=1;strokeColor=none;fillColor=none;align=center;verticalAlign=middle;whiteSpace=wrap;rounded=0;" parent="Q5Fud4AHKC7Yzbmz-aem-93" vertex="1">
          <mxGeometry x="100" y="20" width="120" height="40" as="geometry" />
        </mxCell>
        <mxCell id="Q5Fud4AHKC7Yzbmz-aem-97" value="" style="group" parent="1" vertex="1" connectable="0">
          <mxGeometry x="480" y="480" width="240" height="80" as="geometry" />
        </mxCell>
        <mxCell id="Q5Fud4AHKC7Yzbmz-aem-98" value="" style="verticalLabelPosition=bottom;verticalAlign=top;html=1;shadow=0;dashed=0;strokeWidth=1;shape=mxgraph.android.contact_badge_normal;" parent="Q5Fud4AHKC7Yzbmz-aem-97" vertex="1">
          <mxGeometry width="80" height="80" as="geometry" />
        </mxCell>
        <mxCell id="Q5Fud4AHKC7Yzbmz-aem-99" value="" style="verticalLabelPosition=bottom;verticalAlign=top;html=1;shadow=0;dashed=0;strokeWidth=1;strokeColor=none;shape=rect;fillColor=#0066CC;" parent="Q5Fud4AHKC7Yzbmz-aem-97" vertex="1">
          <mxGeometry x="80" width="160" height="80" as="geometry" />
        </mxCell>
        <mxCell id="Q5Fud4AHKC7Yzbmz-aem-100" value="&lt;font color=&quot;#ffffff&quot; style=&quot;font-size: 21px&quot;&gt;高端装维&lt;/font&gt;" style="text;html=1;strokeColor=none;fillColor=none;align=center;verticalAlign=middle;whiteSpace=wrap;rounded=0;" parent="Q5Fud4AHKC7Yzbmz-aem-97" vertex="1">
          <mxGeometry x="100" y="20" width="120" height="40" as="geometry" />
        </mxCell>
        <mxCell id="Q5Fud4AHKC7Yzbmz-aem-101" value="" style="endArrow=none;html=1;exitX=1;exitY=0.5;exitDx=0;exitDy=0;entryX=0.023;entryY=0.555;entryDx=0;entryDy=0;entryPerimeter=0;" parent="1" source="Q5Fud4AHKC7Yzbmz-aem-24" edge="1" target="Q5Fud4AHKC7Yzbmz-aem-94">
          <mxGeometry width="50" height="50" relative="1" as="geometry">
            <mxPoint x="-140" y="280" as="sourcePoint" />
            <mxPoint x="477" y="400" as="targetPoint" />
          </mxGeometry>
        </mxCell>
        <mxCell id="Q5Fud4AHKC7Yzbmz-aem-104" value="&lt;font style=&quot;font-size: 24px&quot;&gt;支撑&lt;/font&gt;" style="text;html=1;strokeColor=none;fillColor=none;align=center;verticalAlign=middle;whiteSpace=wrap;rounded=0;" parent="1" vertex="1">
          <mxGeometry x="40" y="300" width="60" height="20" as="geometry" />
        </mxCell>
        <mxCell id="Q5Fud4AHKC7Yzbmz-aem-105" value="&lt;font style=&quot;font-size: 24px&quot;&gt;支撑&lt;/font&gt;" style="text;html=1;strokeColor=none;fillColor=none;align=center;verticalAlign=middle;whiteSpace=wrap;rounded=0;" parent="1" vertex="1">
          <mxGeometry x="-334" y="503" width="60" height="20" as="geometry" />
        </mxCell>
        <mxCell id="Q5Fud4AHKC7Yzbmz-aem-107" value="&lt;font style=&quot;font-size: 24px&quot;&gt;支撑&lt;/font&gt;" style="text;html=1;strokeColor=none;fillColor=none;align=center;verticalAlign=middle;whiteSpace=wrap;rounded=0;" parent="1" vertex="1">
          <mxGeometry x="-350" y="220" width="60" height="20" as="geometry" />
        </mxCell>
        <mxCell id="Q5Fud4AHKC7Yzbmz-aem-115" value="&lt;font style=&quot;font-size: 24px&quot;&gt;支撑&lt;/font&gt;" style="text;html=1;strokeColor=none;fillColor=none;align=center;verticalAlign=middle;whiteSpace=wrap;rounded=0;" parent="1" vertex="1">
          <mxGeometry x="280" y="592" width="60" height="20" as="geometry" />
        </mxCell>
        <mxCell id="Q5Fud4AHKC7Yzbmz-aem-116" value="" style="endArrow=classic;startArrow=classic;html=1;entryX=0.5;entryY=1;entryDx=0;entryDy=0;exitX=0.5;exitY=0;exitDx=0;exitDy=0;" parent="1" source="Q5Fud4AHKC7Yzbmz-aem-12" target="Q5Fud4AHKC7Yzbmz-aem-24" edge="1">
          <mxGeometry width="50" height="50" relative="1" as="geometry">
            <mxPoint x="10" y="410" as="sourcePoint" />
            <mxPoint x="170" y="410" as="targetPoint" />
          </mxGeometry>
        </mxCell>
        <mxCell id="cnSfAzxbxcXebwONDiKh-5" value="&lt;font style=&quot;font-size: 21px&quot; color=&quot;#ff0000&quot;&gt;小微ICT闭环管理&lt;/font&gt;" style="text;html=1;strokeColor=none;fillColor=none;align=center;verticalAlign=middle;whiteSpace=wrap;rounded=0;" vertex="1" parent="1">
          <mxGeometry x="200" y="130" width="180" height="20" as="geometry" />
        </mxCell>
        <mxCell id="cnSfAzxbxcXebwONDiKh-7" value="" style="endArrow=none;html=1;exitX=0.016;exitY=0.502;exitDx=0;exitDy=0;exitPerimeter=0;entryX=1;entryY=0.5;entryDx=0;entryDy=0;" edge="1" parent="1" source="Q5Fud4AHKC7Yzbmz-aem-1" target="Q5Fud4AHKC7Yzbmz-aem-28">
          <mxGeometry width="50" height="50" relative="1" as="geometry">
            <mxPoint x="-470" y="410" as="sourcePoint" />
            <mxPoint x="-210" y="310" as="targetPoint" />
          </mxGeometry>
        </mxCell>
        <mxCell id="cnSfAzxbxcXebwONDiKh-9" value="&lt;font style=&quot;font-size: 21px&quot; color=&quot;#0000ff&quot;&gt;大规模DICT&lt;/font&gt;" style="text;html=1;strokeColor=none;fillColor=none;align=center;verticalAlign=middle;whiteSpace=wrap;rounded=0;" vertex="1" parent="1">
          <mxGeometry x="-148" y="130" width="180" height="20" as="geometry" />
        </mxCell>
      </root>
    </mxGraphModel>
  </diagram>
</mxfile>
